<svg xmlns="http://www.w3.org/2000/svg" viewBox="0 0 64.19 64"><defs><style>.cls-1{fill:none;}</style></defs><g id="Layer_2" data-name="Layer 2"><g id="Layer_1-2" data-name="Layer 1"><g id="add"><rect class="cls-1" x="0.09" width="64" height="64"/><path d="M57.22,21H47.93C42.76,21,43,17.45,43,17.45V7.87C43-.14,36.6,0,36.6,0h-9s-6.4-.14-6.4,7.87v9.58S21.43,21,16.26,21H7s-7,1-7,7.63v6.74C0,42,7,43,7,43h9.29c5.17,0,4.93,3.55,4.93,3.55v9.58c0,8,6.4,7.87,6.4,7.87h9s6.4.14,6.4-7.87V46.55S42.76,43,47.93,43h9.29s7-1,7-7.63V28.63C64.19,22,57.22,21,57.22,21Z"/></g></g></g></svg>