<svg xmlns="http://www.w3.org/2000/svg" viewBox="0 0 64.19 64"><defs><style>.cls-1{fill:none;}</style></defs><g id="Layer_2" data-name="Layer 2"><g id="Layer_1-2" data-name="Layer 1"><g id="add_outline"><rect class="cls-1" x="0.09" width="64" height="64"/><path d="M27.57,4h9c1.59.06,2.4,1.37,2.4,3.87v9.49a7.22,7.22,0,0,0,1.94,5c1.12,1.19,3.24,2.62,7,2.62h8.91c1,.23,3.35,1,3.35,3.63v6.74c0,2.61-2.35,3.41-3.34,3.63H47.93c-3.75,0-5.87,1.43-7,2.62a7.22,7.22,0,0,0-1.94,5v9.49c0,2.51-.81,3.81-2.38,3.87h-9c-1.59-.07-2.4-1.37-2.4-3.87V46.64a7.22,7.22,0,0,0-1.94-5C22.13,40.43,20,39,16.26,39H7.35C6.31,38.77,4,38,4,35.37V28.63C4,26,6.35,25.22,7.34,25h8.92c3.75,0,5.87-1.43,7-2.62a7.22,7.22,0,0,0,1.94-5V7.87c0-2.51.81-3.81,2.38-3.87m9-4h-9c-.41,0-6.38.13-6.38,7.87v9.58S21.43,21,16.26,21H7s-7,1-7,7.63v6.74C0,42,7,43,7,43h9.29c5.17,0,4.93,3.55,4.93,3.55v9.58c0,7.74,6,7.87,6.38,7.87h9C37,64,43,63.87,43,56.13V46.55S42.76,43,47.93,43h9.29s7-1,7-7.63V28.63c0-6.59-7-7.63-7-7.63H47.93C42.76,21,43,17.45,43,17.45V7.87C43,.13,37,0,36.62,0Z"/></g></g></g></svg>