<svg xmlns="http://www.w3.org/2000/svg" viewBox="0 0 64 64"><defs><style>.cls-1{fill:none;}</style></defs><g id="Layer_2" data-name="Layer 2"><g id="Layer_1-2" data-name="Layer 1"><g id="arrow"><rect class="cls-1" width="64" height="64"/><path d="M60.35,28.35H12L29.59,9.5a3.65,3.65,0,0,0-5.34-5L1,29.51l0,.07-.17.21L.59,30l-.12.22a1.49,1.49,0,0,0-.13.25l0,.07-.06.16L.15,31a1.83,1.83,0,0,0-.06.25,2,2,0,0,0,0,.26,2.06,2.06,0,0,0,0,.26c0,.08,0,.17,0,.26s0,.17,0,.26a2.3,2.3,0,0,0,0,.26,2,2,0,0,0,0,.26A1.83,1.83,0,0,0,.15,33l.09.27.06.16,0,.07a1.49,1.49,0,0,0,.13.25L.59,34l.16.21.17.21,0,.07,23.28,25a3.65,3.65,0,0,0,5.34-5L12,35.65H60.35a3.65,3.65,0,0,0,0-7.3Z"/></g></g></g></svg>