<svg xmlns="http://www.w3.org/2000/svg" viewBox="0 0 64 64"><defs><style>.cls-1{fill:none;}</style></defs><g id="Layer_2" data-name="Layer 2"><g id="Layer_1-2" data-name="Layer 1"><g id="comment_outline"><rect class="cls-1" width="64" height="64"/><path d="M31.3,5.7A35.81,35.81,0,0,1,48,9.77c7.11,3.82,9.74,9.36,11.38,14.28,1.34,4,.37,11.5-1.34,14.61a26.41,26.41,0,0,1-6.13,7A10.22,10.22,0,0,0,48.1,54c0,2.1-.08,3.14-.08,3.14a3.64,3.64,0,0,0,0,.66v.06l-.36-.2a31.7,31.7,0,0,1-4.94-3.56c-1.47-1.26-3-2.56-5.76-2.56a11.79,11.79,0,0,0-2.07.21l-.69.11a28.8,28.8,0,0,1-3.84.26A30.56,30.56,0,0,1,19.09,49.9c-3.8-1.49-9-4.24-12.14-8.83C1.07,32.52,5.07,20,9,15.34c4.09-4.87,11.48-8.11,17-9.17A28.68,28.68,0,0,1,31.3,5.7m0-4a32.57,32.57,0,0,0-6.1.54c-6.51,1.25-14.66,5-19.3,10.52S-3.49,32.94,3.65,43.34c3.61,5.25,9.26,8.43,14,10.28a34.81,34.81,0,0,0,12.73,2.46,32.24,32.24,0,0,0,4.38-.3l.86-.13A7.57,7.57,0,0,1,37,55.5c2.42,0,2.53,1.9,8.65,5.55a7.24,7.24,0,0,0,3.55,1.25c3.28,0,2.84-4.86,2.84-4.86s.1-1.13.1-3.48a6.33,6.33,0,0,1,2.16-5.12,30.31,30.31,0,0,0,7.28-8.26c2.13-3.88,3.38-12.53,1.63-17.79s-4.89-12-13.28-16.54A40,40,0,0,0,31.3,1.7Z"/></g></g></g></svg>