<svg xmlns="http://www.w3.org/2000/svg" viewBox="0 0 64 64"><defs><style>.cls-1{fill:none;}</style></defs><g id="Layer_2" data-name="Layer 2"><g id="Layer_1-2" data-name="Layer 1"><g id="comment"><rect class="cls-1" width="64" height="64"/><path d="M34.74,55.78a34.15,34.15,0,0,1-17.11-2.16c-4.72-1.85-10.37-5-14-10.28C-3.49,32.94,1.27,18.28,5.9,12.76S18.69,3.49,25.2,2.24a39.42,39.42,0,0,1,24.69,4c8.39,4.51,11.52,11.28,13.28,16.54s.5,13.91-1.63,17.79a30.31,30.31,0,0,1-7.28,8.26A6.33,6.33,0,0,0,52.1,54c0,2.35-.1,3.48-.1,3.48s.71,7.84-6.39,3.61-6.11-6.11-10-5.4Z"/></g></g></g></svg>