<svg xmlns="http://www.w3.org/2000/svg" viewBox="0 0 64 64"><defs><style>.cls-1{fill:none;}</style></defs><g id="Layer_2" data-name="Layer 2"><g id="Layer_1-2" data-name="Layer 1"><g id="mail"><path d="M36.21,36.79a10.66,10.66,0,0,1-4.61,1.13,7.47,7.47,0,0,1-4.36-1.33L.21,21.32A152.89,152.89,0,0,0,.9,45.55l-.09.07s.07.51.27,1.33c.17,1.16.35,2.19.54,3,.69,2.94,3,4.89,5.65,6.17a14.57,14.57,0,0,0,6.64,2.31c11.71,1.26,28.57,1.26,37.39,0S61.37,52.92,63,48.14c1.2-3.52,1.24-16.2.49-25.68C55.11,26.92,39.18,35.37,36.21,36.79Z"/><path d="M27.93,30.11a8,8,0,0,0,8,.15c3-1.57,19.47-10.24,26.88-14.19-.12-.76-.25-1.45-.39-2.05-.69-2.94-3-4.89-5.65-6.17a14.57,14.57,0,0,0-6.64-2.31c-11.71-1.26-28.58-1.26-37.39,0C4.39,6.73,2.8,10.61,1.27,15.06L26.64,29.38Z"/><rect class="cls-1" width="64" height="64"/></g></g></g></svg>