<svg width="22" height="21" viewBox="0 0 22 21" fill="none" xmlns="http://www.w3.org/2000/svg">
<path d="M18.847 7.3749H15.9439C14.3283 7.3749 14.4033 6.26553 14.4033 6.26553V3.27179C14.4033 0.768678 12.4033 0.812428 12.4033 0.812428H9.59078C9.59078 0.812428 7.59079 0.768678 7.59079 3.27179V6.26553C7.59079 6.26553 7.66266 7.3749 6.04704 7.3749H3.15331C3.15331 7.3749 0.96582 7.68739 0.96582 9.75926V11.8655C0.96582 13.9374 3.15331 14.2499 3.15331 14.2499H6.05642C7.67204 14.2499 7.59704 15.3592 7.59704 15.3592V18.353C7.59704 20.853 9.59703 20.8123 9.59703 20.8123H12.4095C12.4095 20.8123 14.4095 20.8561 14.4095 18.353V15.3592C14.4095 15.3592 14.3283 14.2499 15.9439 14.2499H18.847C18.847 14.2499 21.0345 13.9374 21.0345 11.8655V9.75926C21.0251 7.68739 18.847 7.3749 18.847 7.3749Z" fill="#FFFDFA"/>
</svg>
