<svg xmlns="http://www.w3.org/2000/svg" viewBox="0 0 25.87 25.8"><defs><style>.cls-1,.cls-2{fill:none;}.cls-2{stroke:#000;stroke-miterlimit:10;stroke-width:1.87px;}</style></defs><g id="Layer_2" data-name="Layer 2"><g id="Layer_1-2" data-name="Layer 1"><g id="add_outline"><rect class="cls-1" x="0.97" y="0.93" width="23.93" height="23.93"/><path class="cls-2" d="M22.33,8.79H18.85C16.92,8.79,17,7.46,17,7.46V3.88c0-3-2.39-2.95-2.39-2.95H11.25S8.86.88,8.86,3.88V7.46S9,8.79,7,8.79H3.54S.93,9.18.93,11.64v2.52C.93,16.62,3.54,17,3.54,17H7C9,17,8.86,18.34,8.86,18.34v3.58c0,3,2.39,2.94,2.39,2.94h3.37S17,24.92,17,21.92V18.34S16.92,17,18.85,17h3.48s2.6-.39,2.6-2.85V11.64C24.93,9.18,22.33,8.79,22.33,8.79Z"/></g></g></g></svg>