<svg xmlns="http://www.w3.org/2000/svg" viewBox="0 0 27 25.73"><defs><style>.cls-1,.cls-2{fill:none;}.cls-2{stroke:#000;stroke-miterlimit:10;stroke-width:3px;}</style></defs><g id="Layer_2" data-name="Layer 2"><g id="Layer_1-2" data-name="Layer 1"><g id="comment_outline"><rect class="cls-1" x="1.5" y="0.86" width="24" height="24"/><path class="cls-2" d="M14.53,21.78A12.7,12.7,0,0,1,8.11,21a11.22,11.22,0,0,1-5.24-3.85C.19,13.22,2,7.72,3.71,5.65A13.36,13.36,0,0,1,11,1.7a14.82,14.82,0,0,1,9.26,1.51,10.21,10.21,0,0,1,5,6.2,10.22,10.22,0,0,1-.61,6.67,11.56,11.56,0,0,1-2.73,3.1A2.36,2.36,0,0,0,21,21.1c0,.88,0,1.3,0,1.3s.26,3-2.4,1.36-2.29-2.29-3.75-2Z"/></g></g></g></svg>