<svg width="435" height="435" viewBox="0 0 435 435" fill="none" xmlns="http://www.w3.org/2000/svg">
<rect width="435" height="435" fill="#C4C4C4"/>
<path d="M221.5 202C254.361 202 281 175.361 281 142.5C281 109.639 254.361 83 221.5 83C188.639 83 162 109.639 162 142.5C162 175.361 188.639 202 221.5 202Z" fill="white"/>
<path d="M321.046 252.802C298.963 223.637 251.523 222 251.523 222H184.351C184.351 222 136.911 223.637 114.829 252.802C92.7461 281.968 83.594 299.803 84.0138 316.043C84.4336 332.284 88.17 351 121.378 351H314.496C347.83 351 351.567 332.284 351.986 316.043C352.406 299.803 343.086 281.926 321.046 252.802Z" fill="white"/>
</svg>
