<svg xmlns="http://www.w3.org/2000/svg" viewBox="0 0 64 64"><defs><style>.cls-1{fill:none;}</style></defs><g id="Layer_2" data-name="Layer 2"><g id="Layer_1-2" data-name="Layer 1"><g id="heart_outline"><rect class="cls-1" width="64" height="64"/><path d="M45.5,8a11.72,11.72,0,0,1,7.6,2.41l.25.18c.27.19,6.56,4.66,6.65,12.61.1,8.86-7.58,19.19-22.22,29.85l-.47.34c-1.05.73-2,1.36-2.77,1.82l-.34.22-.21.08-.21.09a3.85,3.85,0,0,1-1.62.4h-.32a3.85,3.85,0,0,1-1.62-.4L30,55.51l-.21-.08-.34-.22c-.82-.46-1.72-1.09-2.77-1.83l-.47-.33C11.59,42.39,3.9,32.06,4,23.2c.09-7.95,6.38-12.42,6.63-12.59l.27-.2A11.72,11.72,0,0,1,18.5,8,18.33,18.33,0,0,1,27,10.05a9.46,9.46,0,0,0,4.8,1.38h.44A9.46,9.46,0,0,0,37,10.05,18.33,18.33,0,0,1,45.5,8m0-4A22,22,0,0,0,34.92,6.65a5.58,5.58,0,0,1-2.81.78h-.22a5.58,5.58,0,0,1-2.81-.78A22,22,0,0,0,18.5,4,15.83,15.83,0,0,0,8.39,7.29s-26.84,18.16,15.5,49c1.32.92,2.47,1.74,3.59,2.38v.09c.38.18.74.33,1.09.46a7.77,7.77,0,0,0,3.27.76h.32a7.77,7.77,0,0,0,3.27-.76c.35-.13.71-.28,1.09-.46v-.09c1.12-.64,2.27-1.46,3.59-2.38,42.34-30.86,15.5-49,15.5-49A15.83,15.83,0,0,0,45.5,4Z"/></g></g></g></svg>