<svg xmlns="http://www.w3.org/2000/svg" viewBox="0 0 64 64"><defs><style>.cls-1{fill:none;}</style></defs><g id="Layer_2" data-name="Layer 2"><g id="Layer_1-2" data-name="Layer 1"><g id="heart"><rect class="cls-1" width="64" height="64"/><path d="M55.61,7.29c-7-5.62-17.23-2.78-20.69-.64a5.58,5.58,0,0,1-2.81.78h-.22a5.58,5.58,0,0,1-2.81-.78c-3.46-2.14-13.73-5-20.69.64,0,0-26.84,18.16,15.5,49,1.32.92,2.47,1.74,3.59,2.38v.09c.38.18.74.33,1.09.46a8.22,8.22,0,0,0,6.86,0c.35-.13.71-.28,1.09-.46v-.09c1.12-.64,2.27-1.46,3.59-2.38C82.45,25.45,55.61,7.29,55.61,7.29Z"/></g></g></g></svg>