<svg width="67" height="67" viewBox="0 0 67 67" fill="none" xmlns="http://www.w3.org/2000/svg">
<path d="M57.6768 8.25023C50.4581 2.45461 39.9084 5.38336 36.3403 7.59023C35.4627 8.11049 34.4626 8.3881 33.4425 8.39461H33.2156C32.1954 8.3881 31.1953 8.11049 30.3178 7.59023C26.7496 5.38336 16.1587 2.43398 8.9812 8.25023C8.9812 8.25023 -18.6975 26.9777 24.9656 58.7815C26.3268 59.7302 27.5128 60.5759 28.6678 61.2359V61.3287C29.0596 61.5143 29.4309 61.669 29.7918 61.8031C30.9014 62.3125 32.108 62.5763 33.329 62.5763C34.55 62.5763 35.7566 62.3125 36.8662 61.8031C37.2271 61.669 37.5984 61.5143 37.9903 61.3287V61.2359C39.1453 60.5759 40.3312 59.7302 41.6925 58.7815C85.3556 26.9777 57.6768 8.25023 57.6768 8.25023Z" fill="#EE4957"/>
</svg>
