<svg xmlns="http://www.w3.org/2000/svg" viewBox="0 0 27 24"><defs><style>.cls-1,.cls-2{fill:none;}.cls-2{stroke:#000;stroke-miterlimit:10;stroke-width:3px;}</style></defs><g id="Layer_2" data-name="Layer 2"><g id="Layer_1-2" data-name="Layer 1"><g id="heart_outline"><rect class="cls-1" x="1.5" width="24" height="24"/><path class="cls-2" d="M22.36,2.74C19.74.63,15.89,1.69,14.59,2.5a2.1,2.1,0,0,1-1.05.29h-.08a2.1,2.1,0,0,1-1.05-.29c-1.3-.81-5.15-1.87-7.77.24,0,0-10.06,6.81,5.82,18.38.49.34.92.65,1.34.89v0l.41.18a3.11,3.11,0,0,0,2.58,0L15.2,22v0c.42-.24.85-.55,1.34-.89C32.42,9.55,22.36,2.74,22.36,2.74Z"/></g></g></g></svg>