<svg xmlns="http://www.w3.org/2000/svg" viewBox="0 0 64 64"><defs><style>.cls-1{fill:none;}</style></defs><g id="Layer_2" data-name="Layer 2"><g id="Layer_1-2" data-name="Layer 1"><g id="home_outline"><rect class="cls-1" width="64" height="64"/><path d="M32.23,7.29a6.94,6.94,0,0,1,2.89.61l.23.09a19,19,0,0,1,5.77,3.57l.19.17c.07.06,6.65,5.63,13.84,11.84,5.58,4.81,4.82,13.9,4.81,14s0,.27,0,.4V55.12c-.55.65-3.19,1.49-5.67,1.59H48.35c-4,0-5.23-.9-5.5-1.15V45.31c0-10.1-5.54-13.88-10.72-14h-.26c-5.18.17-10.72,3.95-10.72,14.05V55.56c-.27.25-1.52,1.15-5.5,1.15H9.73c-2.49-.11-5.12-.94-5.67-1.59V37.94c0-.13,0-.26,0-.4s-.75-9.18,4.81-14C16,17.36,22.62,11.79,22.69,11.73l.18-.16A19,19,0,0,1,28.65,8l.23-.09a6.94,6.94,0,0,1,2.89-.61h.46m0-4h-.46a11.13,11.13,0,0,0-4.52,1A23.29,23.29,0,0,0,20.1,8.68S13.53,14.25,6.24,20.54.06,37.94.06,37.94V55.19c0,5.2,9.59,5.52,9.59,5.52h6c9.91,0,9.5-4.92,9.5-4.92V45.31c0-8.85,4.76-10,6.85-10.05s6.85,1.2,6.85,10.05V55.79s-.41,4.92,9.5,4.92h6s9.59-.32,9.59-5.52V37.94s1.11-11.11-6.18-17.4S43.9,8.68,43.9,8.68a23.29,23.29,0,0,0-7.15-4.44,11.13,11.13,0,0,0-4.52-1Z"/></g></g></g></svg>