<svg xmlns="http://www.w3.org/2000/svg" viewBox="0 0 64 64"><defs><style>.cls-1{fill:none;}</style></defs><g id="Layer_2" data-name="Layer 2"><g id="Layer_1-2" data-name="Layer 1"><g id="home"><rect class="cls-1" width="64" height="64"/><path d="M57.76,20.54C50.47,14.25,43.9,8.68,43.9,8.68a23.29,23.29,0,0,0-7.15-4.44,11.05,11.05,0,0,0-4.75-1,11.05,11.05,0,0,0-4.75,1A23.29,23.29,0,0,0,20.1,8.68S13.53,14.25,6.24,20.54.06,37.94.06,37.94V55.19c0,5.2,9.59,5.52,9.59,5.52h6c9.91,0,9.5-4.92,9.5-4.92V45.31c0-8.85,4.76-10,6.85-10.05s6.85,1.2,6.85,10.05V55.79s-.41,4.92,9.5,4.92h6s9.59-.32,9.59-5.52V37.94S65.05,26.83,57.76,20.54Z"/></g></g></g></svg>