<svg xmlns="http://www.w3.org/2000/svg" viewBox="0 0 27 24.53"><defs><style>.cls-1,.cls-2{fill:none;}.cls-2{stroke:#000;stroke-miterlimit:10;stroke-width:3px;}</style></defs><g id="Layer_2" data-name="Layer 2"><g id="Layer_1-2" data-name="Layer 1"><g id="home_outline"><rect class="cls-1" x="1.5" y="0.27" width="24" height="24"/><path class="cls-2" d="M23.16,8C20.43,5.61,18,3.52,18,3.52a8.65,8.65,0,0,0-2.68-1.66A4.11,4.11,0,0,0,13.5,1.5a4.11,4.11,0,0,0-1.78.36A8.65,8.65,0,0,0,9,3.52S6.57,5.61,3.84,8,1.52,14.5,1.52,14.5V21c0,1.95,3.6,2.07,3.6,2.07H7.37c3.72,0,3.56-1.84,3.56-1.84V17.26c0-3.32,1.79-3.74,2.57-3.77s2.57.45,2.57,3.77v3.93S15.91,23,19.63,23h2.25s3.6-.12,3.6-2.07V14.5S25.89,10.33,23.16,8Z"/></g></g></g></svg>