<svg xmlns="http://www.w3.org/2000/svg" viewBox="0 0 67.99 64"><defs><style>.cls-1,.cls-2{fill:none;}.cls-1{stroke:#000;stroke-linecap:round;stroke-linejoin:round;stroke-width:3.99px;}</style></defs><g id="Layer_2" data-name="Layer 2"><g id="Layer_1-2" data-name="Layer 1"><g id="mail_outline"><path class="cls-1" d="M38.21,36.54a10.73,10.73,0,0,1-4.62,1.13,7.47,7.47,0,0,1-4.36-1.33L2.2,21.07A152.89,152.89,0,0,0,2.89,45.3l-.08.07a12.3,12.3,0,0,0,.26,1.33c.17,1.16.35,2.19.55,3,.68,2.94,3,4.89,5.64,6.17a14.62,14.62,0,0,0,6.64,2.31c11.71,1.26,28.58,1.26,37.39,0S63.36,52.67,65,47.89c1.2-3.52,1.25-16.2.49-25.68C57.11,26.67,41.18,35.12,38.21,36.54Z"/><path class="cls-1" d="M29.92,28.61a8,8,0,0,0,8,.15c3-1.57,19.47-10.24,26.88-14.19-.12-.76-.25-1.45-.39-2.05-.69-2.94-3-4.89-5.64-6.17A14.66,14.66,0,0,0,52.09,4C40.38,2.78,23.51,2.78,14.7,4,6.38,5.23,4.79,9.11,3.26,13.56L28.63,27.88Z"/><rect class="cls-2" x="1.99" width="64" height="64"/></g></g></g></svg>