<svg xmlns="http://www.w3.org/2000/svg" viewBox="0 0 25.88 24"><defs><style>.cls-1,.cls-2{fill:none;}.cls-1{stroke:#000;stroke-linecap:round;stroke-linejoin:round;stroke-width:1.87px;}</style></defs><g id="Layer_2" data-name="Layer 2"><g id="Layer_1-2" data-name="Layer 1"><g id="mail_outline"><path class="cls-1" d="M14.52,13.7a4,4,0,0,1-1.73.43,2.8,2.8,0,0,1-1.64-.5L1,7.9A59.08,59.08,0,0,0,1.27,17l0,0s0,.2.1.5a10.77,10.77,0,0,0,.21,1.14A3.59,3.59,0,0,0,3.66,21a5.48,5.48,0,0,0,2.49.87,69.64,69.64,0,0,0,14,0c3.31-.47,3.78-2.08,4.39-3.87.46-1.32.47-6.08.19-9.63C21.61,10,15.63,13.17,14.52,13.7Z"/><path class="cls-1" d="M11.41,10.73a3,3,0,0,0,3,0c1.14-.59,7.3-3.84,10.08-5.32-.05-.28-.1-.54-.15-.77a3.63,3.63,0,0,0-2.12-2.31,5.43,5.43,0,0,0-2.49-.86,68.2,68.2,0,0,0-14,0C2.58,2,2,3.41,1.41,5.08l9.52,5.38Z"/><rect class="cls-2" x="0.94" width="24" height="24"/></g></g></g></svg>