<svg width="24" height="24" viewBox="0 0 24 24" fill="none" xmlns="http://www.w3.org/2000/svg">
<path d="M13.5786 13.7962C13.0415 14.0656 12.4506 14.2105 11.8499 14.22C11.2662 14.2282 10.6946 14.0538 10.2149 13.7212L0.078608 7.995C-0.0757517 11.0258 0.0107702 14.0641 0.337358 17.0812L0.303608 17.1075C0.303608 17.1075 0.329858 17.2987 0.404858 17.6062C0.468608 18.0412 0.536108 18.4275 0.607358 18.7312C0.866108 19.8337 1.73236 20.565 2.72611 21.045C3.47296 21.5327 4.32784 21.8301 5.21611 21.9112C9.60736 22.3837 15.9299 22.3837 19.2374 21.9112C22.5449 21.4387 23.0136 19.845 23.6249 18.0525C24.0749 16.7325 24.0899 11.9775 23.8086 8.42249C20.6661 10.095 14.6924 13.2637 13.5786 13.7962Z" fill="white"/>
<path d="M10.4736 11.2913C10.9247 11.5632 11.4394 11.7115 11.966 11.7214C12.4927 11.7313 13.0126 11.6023 13.4736 11.3475C14.5986 10.7588 20.7748 7.50752 23.5536 6.02627C23.5086 5.74127 23.4598 5.48252 23.4073 5.25752C23.1486 4.15502 22.2823 3.42377 21.2886 2.94377C20.5417 2.4561 19.6868 2.15869 18.7986 2.07752C14.4073 1.60502 8.08107 1.60502 4.77732 2.07752C1.64607 2.52377 1.04982 3.97877 0.476074 5.64752L9.98982 11.0175L10.4736 11.2913Z" fill="white"/>
</svg>
