<svg width="29" height="29" viewBox="0 0 29 29" fill="none" xmlns="http://www.w3.org/2000/svg">
<path d="M25.3845 15.872C25.4421 15.424 25.4852 14.976 25.4852 14.5C25.4852 14.024 25.4421 13.576 25.3845 13.128L28.4214 10.818C28.6948 10.608 28.7668 10.23 28.5941 9.922L25.7155 5.078C25.586 4.854 25.3413 4.728 25.0822 4.728C24.9959 4.728 24.9095 4.742 24.8376 4.77L21.2538 6.17C20.5053 5.61 19.6994 5.148 18.8214 4.798L18.2745 1.088C18.2313 0.752 17.929 0.5 17.5692 0.5H11.8121C11.4523 0.5 11.1501 0.752 11.1069 1.088L10.56 4.798C9.682 5.148 8.87601 5.624 8.12759 6.17L4.54379 4.77C4.45744 4.742 4.37108 4.728 4.28472 4.728C4.04005 4.728 3.79537 4.854 3.66584 5.078L0.787287 9.922C0.600181 10.23 0.686538 10.608 0.96 10.818L3.99687 13.128C3.9393 13.576 3.89612 14.038 3.89612 14.5C3.89612 14.962 3.9393 15.424 3.99687 15.872L0.96 18.182C0.686538 18.392 0.614574 18.77 0.787287 19.078L3.66584 23.922C3.79537 24.146 4.04005 24.272 4.29912 24.272C4.38547 24.272 4.47183 24.258 4.54379 24.23L8.12759 22.83C8.87601 23.39 9.682 23.852 10.56 24.202L11.1069 27.912C11.1501 28.248 11.4523 28.5 11.8121 28.5H17.5692C17.929 28.5 18.2313 28.248 18.2745 27.912L18.8214 24.202C19.6994 23.852 20.5053 23.376 21.2538 22.83L24.8376 24.23C24.9239 24.258 25.0103 24.272 25.0966 24.272C25.3413 24.272 25.586 24.146 25.7155 23.922L28.5941 19.078C28.7668 18.77 28.6948 18.392 28.4214 18.182L25.3845 15.872ZM22.5347 13.478C22.5923 13.912 22.6067 14.206 22.6067 14.5C22.6067 14.794 22.5779 15.102 22.5347 15.522L22.3332 17.104L23.6142 18.084L25.1686 19.26L24.1611 20.954L22.3332 20.24L20.8364 19.652L19.541 20.604C18.9221 21.052 18.332 21.388 17.7419 21.626L16.2163 22.228L15.986 23.81L15.6982 25.7H13.6832L13.4097 23.81L13.1794 22.228L11.6538 21.626C11.0349 21.374 10.4592 21.052 9.8835 20.632L8.57376 19.652L7.04813 20.254L5.22025 20.968L4.21276 19.274L5.76718 18.098L7.04813 17.118L6.84663 15.536C6.80345 15.102 6.77467 14.78 6.77467 14.5C6.77467 14.22 6.80345 13.898 6.84663 13.478L7.04813 11.896L5.76718 10.916L4.21276 9.74L5.22025 8.046L7.04813 8.76L8.54498 9.348L9.84032 8.396C10.4592 7.948 11.0493 7.612 11.6394 7.374L13.165 6.772L13.3953 5.19L13.6832 3.3H15.6838L15.9572 5.19L16.1875 6.772L17.7132 7.374C18.332 7.626 18.9078 7.948 19.4835 8.368L20.7932 9.348L22.3188 8.746L24.1467 8.032L25.1542 9.726L23.6142 10.916L22.3332 11.896L22.5347 13.478ZM14.6907 8.9C11.5099 8.9 8.93358 11.406 8.93358 14.5C8.93358 17.594 11.5099 20.1 14.6907 20.1C17.8715 20.1 20.4478 17.594 20.4478 14.5C20.4478 11.406 17.8715 8.9 14.6907 8.9ZM14.6907 17.3C13.1075 17.3 11.8121 16.04 11.8121 14.5C11.8121 12.96 13.1075 11.7 14.6907 11.7C16.2739 11.7 17.5692 12.96 17.5692 14.5C17.5692 16.04 16.2739 17.3 14.6907 17.3Z" fill="black"/>
</svg>
