<svg width="38" height="37" viewBox="0 0 38 37" fill="none" xmlns="http://www.w3.org/2000/svg">
<mask id="mask0" mask-type="alpha" maskUnits="userSpaceOnUse" x="0" y="0" width="38" height="37">
<ellipse cx="18.8141" cy="18.5" rx="18.8141" ry="18.5" fill="#C4C4C4"/>
</mask>
<g mask="url(#mask0)">
<rect width="37.6281" height="37" fill="black"/>
</g>
<path d="M9.80475 20.2655L25.1706 20.2655L19.5804 26.1562C19.3697 26.3774 19.257 26.672 19.2672 26.975C19.2773 27.278 19.4094 27.5646 19.6345 27.7718C19.8595 27.979 20.159 28.0898 20.4672 28.0798C20.7753 28.0699 21.0668 27.9399 21.2775 27.7187L28.6665 19.903L28.6665 19.8812L28.7205 19.8155L28.7968 19.7499L28.8349 19.6812C28.8512 19.6565 28.865 19.6303 28.8762 19.603L28.8762 19.5812L28.8953 19.5312L28.9366 19.4374C28.9448 19.4118 28.9512 19.3857 28.9557 19.3593C28.9575 19.3322 28.9575 19.3051 28.9557 19.278C28.9574 19.251 28.9574 19.2238 28.9557 19.1968C28.9557 19.1718 28.9557 19.1437 28.9557 19.1155C28.9557 19.0874 28.9557 19.0624 28.9557 19.0343C28.9572 19.0072 28.9572 18.9801 28.9557 18.953C28.9575 18.926 28.9575 18.8988 28.9557 18.8718C28.9504 18.8517 28.9441 18.8318 28.9366 18.8124L28.908 18.728L28.8889 18.678L28.8889 18.6562C28.8777 18.6289 28.8639 18.6027 28.8476 18.578L28.7968 18.4999L28.7459 18.4343L28.6919 18.3687L28.6919 18.3468L21.2934 10.5343C21.0827 10.313 20.7912 10.1831 20.4831 10.1731C20.1749 10.1632 19.8754 10.274 19.6504 10.4812C19.4253 10.6884 19.2932 10.975 19.2831 11.278C19.2729 11.581 19.3856 11.8755 19.5963 12.0968L25.1706 17.9843L9.80475 17.9843C9.4971 17.9843 9.20205 18.1045 8.98451 18.3184C8.76697 18.5323 8.64476 18.8224 8.64476 19.1249C8.64476 19.4274 8.76697 19.7175 8.98451 19.9314C9.20205 20.1454 9.4971 20.2655 9.80475 20.2655Z" fill="white"/>
</svg>
