<svg width="171" height="66" viewBox="0 0 171 66" fill="none" xmlns="http://www.w3.org/2000/svg">
<path d="M33.4375 0.5C15.4883 0.5 0.9375 15.0507 0.9375 33C0.9375 50.9493 15.4883 65.5 33.4375 65.5C51.3867 65.5 65.9375 50.9492 65.9375 33C65.9375 15.0508 51.3868 0.5 33.4375 0.5ZM50.4879 15.9496C59.0648 24.5264 59.6613 37.6356 53.1976 46.8294L19.608 13.24C28.8081 6.77198 41.9158 7.37755 50.4879 15.9496ZM16.3871 50.0504C7.8102 41.4736 7.21367 28.3644 13.6774 19.1706L47.267 52.76C38.067 59.228 24.9592 58.6226 16.3871 50.0504Z" fill="#E04545"/>
<path d="M78.2585 27.5H82.4773V20.4858H89.3551V27.5H93.5653V10.0455H89.3551V17.0511H82.4773V10.0455H78.2585V27.5ZM106.771 10.0455V20.9375C106.771 22.7528 105.484 24.0568 103.601 24.0568C101.709 24.0568 100.43 22.7528 100.43 20.9375V10.0455H96.2116V21.304C96.2116 25.2074 99.1605 27.7216 103.601 27.7216C108.007 27.7216 110.982 25.2074 110.982 21.304V10.0455H106.771ZM113.626 10.0455V27.5H117.734V16.7188H117.879L122.072 27.3892H124.697L128.89 16.7784H129.035V27.5H133.143V10.0455H127.918L123.487 20.8523H123.282L118.85 10.0455H113.626ZM139.55 27.5L140.7 23.8352H146.726L147.876 27.5H152.411L146.521 10.0455H140.905L135.016 27.5H139.55ZM141.706 20.6307L143.641 14.4432H143.777L145.72 20.6307H141.706ZM169.145 10.0455H164.935V20.1023H164.79L157.92 10.0455H154.29V27.5H158.509V17.4261H158.619L165.565 27.5H169.145V10.0455ZM78.2585 56.5H82.4773V51.0795H85.3409C89.3381 51.0795 91.8352 48.7102 91.8352 45.0881C91.8352 41.5 89.3892 39.0455 85.4688 39.0455H78.2585V56.5ZM82.4773 47.7557V42.446H84.5568C86.4489 42.446 87.4631 43.4688 87.4631 45.0881C87.4631 46.6989 86.4489 47.7557 84.5568 47.7557H82.4773ZM110.389 47.7727C110.389 42.0028 106.741 38.8068 102.054 38.8068C97.3494 38.8068 93.7273 42.0028 93.7273 47.7727C93.7273 53.517 97.3494 56.7386 102.054 56.7386C106.741 56.7386 110.389 53.5426 110.389 47.7727ZM106.077 47.7727C106.077 51.1903 104.577 53.0398 102.054 53.0398C99.5398 53.0398 98.0312 51.1903 98.0312 47.7727C98.0312 44.3551 99.5398 42.5057 102.054 42.5057C104.577 42.5057 106.077 44.3551 106.077 47.7727ZM122.287 44.2784H126.327C126.293 41.0142 123.693 38.8068 119.636 38.8068C115.648 38.8068 112.776 40.9801 112.801 44.2273C112.793 46.8778 114.651 48.3693 117.668 49.0597L119.491 49.4858C121.409 49.929 122.27 50.4489 122.287 51.429C122.27 52.4943 121.273 53.2358 119.577 53.2358C117.71 53.2358 116.483 52.3665 116.389 50.6875H112.349C112.401 54.7699 115.239 56.7216 119.628 56.7216C123.974 56.7216 126.548 54.7528 126.565 51.4375C126.548 48.6506 124.665 46.946 121.222 46.1875L119.722 45.8466C118.136 45.5057 117.131 44.9773 117.165 43.9375C117.173 42.983 117.991 42.2926 119.628 42.2926C121.273 42.2926 122.176 43.0341 122.287 44.2784ZM128.125 42.4716H133.426V56.5H137.585V42.4716H142.878V39.0455H128.125V42.4716ZM154.373 44.2784H158.413C158.379 41.0142 155.779 38.8068 151.722 38.8068C147.734 38.8068 144.862 40.9801 144.887 44.2273C144.879 46.8778 146.737 48.3693 149.754 49.0597L151.577 49.4858C153.495 49.929 154.356 50.4489 154.373 51.429C154.356 52.4943 153.359 53.2358 151.663 53.2358C149.796 53.2358 148.569 52.3665 148.475 50.6875H144.435C144.487 54.7699 147.325 56.7216 151.714 56.7216C156.06 56.7216 158.634 54.7528 158.651 51.4375C158.634 48.6506 156.751 46.946 153.308 46.1875L151.808 45.8466C150.222 45.5057 149.217 44.9773 149.251 43.9375C149.259 42.983 150.077 42.2926 151.714 42.2926C153.359 42.2926 154.262 43.0341 154.373 44.2784Z" fill="black"/>
</svg>
