<svg width="170" height="65" viewBox="0 0 170 65" fill="none" xmlns="http://www.w3.org/2000/svg">
<path d="M32.5 0C14.5508 0 0 14.5507 0 32.5C0 50.4493 14.5508 65 32.5 65C50.4492 65 65 50.4492 65 32.5C65 14.5508 50.4493 0 32.5 0ZM49.5504 15.4496C58.1273 24.0264 58.7238 37.1356 52.2601 46.3294L18.6705 12.74C27.8706 6.27198 40.9783 6.87755 49.5504 15.4496ZM15.4496 49.5504C6.8727 40.9736 6.27617 27.8644 12.7399 18.6706L46.3295 52.26C37.1295 58.728 24.0217 58.1226 15.4496 49.5504Z" fill="#E04545"/>
<path d="M77.321 27H81.5398V19.9858H88.4176V27H92.6278V9.54545H88.4176V16.5511H81.5398V9.54545H77.321V27ZM105.834 9.54545V20.4375C105.834 22.2528 104.547 23.5568 102.663 23.5568C100.771 23.5568 99.4929 22.2528 99.4929 20.4375V9.54545H95.2741V20.804C95.2741 24.7074 98.223 27.2216 102.663 27.2216C107.07 27.2216 110.044 24.7074 110.044 20.804V9.54545H105.834ZM112.688 9.54545V27H116.796V16.2188H116.941L121.134 26.8892H123.759L127.952 16.2784H128.097V27H132.205V9.54545H126.981L122.549 20.3523H122.344L117.913 9.54545H112.688ZM138.612 27L139.763 23.3352H145.788L146.939 27H151.473L145.584 9.54545H139.967L134.078 27H138.612ZM140.768 20.1307L142.703 13.9432H142.839L144.783 20.1307H140.768ZM168.207 9.54545H163.997V19.6023H163.852L156.983 9.54545H153.352V27H157.571V16.9261H157.682L164.628 27H168.207V9.54545ZM77.321 56H81.5398V50.5795H84.4034C88.4006 50.5795 90.8977 48.2102 90.8977 44.5881C90.8977 41 88.4517 38.5455 84.5312 38.5455H77.321V56ZM81.5398 47.2557V41.946H83.6193C85.5114 41.946 86.5256 42.9688 86.5256 44.5881C86.5256 46.1989 85.5114 47.2557 83.6193 47.2557H81.5398ZM109.452 47.2727C109.452 41.5028 105.804 38.3068 101.116 38.3068C96.4119 38.3068 92.7898 41.5028 92.7898 47.2727C92.7898 53.017 96.4119 56.2386 101.116 56.2386C105.804 56.2386 109.452 53.0426 109.452 47.2727ZM105.139 47.2727C105.139 50.6903 103.639 52.5398 101.116 52.5398C98.6023 52.5398 97.0938 50.6903 97.0938 47.2727C97.0938 43.8551 98.6023 42.0057 101.116 42.0057C103.639 42.0057 105.139 43.8551 105.139 47.2727ZM121.349 43.7784H125.389C125.355 40.5142 122.756 38.3068 118.699 38.3068C114.71 38.3068 111.838 40.4801 111.864 43.7273C111.855 46.3778 113.713 47.8693 116.73 48.5597L118.554 48.9858C120.472 49.429 121.332 49.9489 121.349 50.929C121.332 51.9943 120.335 52.7358 118.639 52.7358C116.773 52.7358 115.545 51.8665 115.452 50.1875H111.412C111.463 54.2699 114.301 56.2216 118.69 56.2216C123.037 56.2216 125.611 54.2528 125.628 50.9375C125.611 48.1506 123.727 46.446 120.284 45.6875L118.784 45.3466C117.199 45.0057 116.193 44.4773 116.227 43.4375C116.236 42.483 117.054 41.7926 118.69 41.7926C120.335 41.7926 121.239 42.5341 121.349 43.7784ZM127.188 41.9716H132.489V56H136.648V41.9716H141.94V38.5455H127.188V41.9716ZM153.435 43.7784H157.475C157.441 40.5142 154.842 38.3068 150.785 38.3068C146.796 38.3068 143.924 40.4801 143.95 43.7273C143.941 46.3778 145.799 47.8693 148.816 48.5597L150.64 48.9858C152.558 49.429 153.418 49.9489 153.435 50.929C153.418 51.9943 152.421 52.7358 150.725 52.7358C148.859 52.7358 147.631 51.8665 147.538 50.1875H143.498C143.549 54.2699 146.387 56.2216 150.776 56.2216C155.123 56.2216 157.697 54.2528 157.714 50.9375C157.697 48.1506 155.813 46.446 152.37 45.6875L150.87 45.3466C149.285 45.0057 148.279 44.4773 148.313 43.4375C148.322 42.483 149.14 41.7926 150.776 41.7926C152.421 41.7926 153.325 42.5341 153.435 43.7784Z" fill="black"/>
</svg>
