<svg width="61" height="61" viewBox="0 0 61 61" fill="none" xmlns="http://www.w3.org/2000/svg">
<g clip-path="url(#clip0)">
<path d="M39.2119 22.2251C46.2135 29.2339 46.1174 40.4709 39.2541 47.3723C39.2412 47.3864 39.226 47.4016 39.2119 47.4157L31.3369 55.2907C24.3912 62.2364 13.0909 62.2355 6.14629 55.2907C-0.799414 48.3462 -0.799414 37.0446 6.14629 30.1001L10.4946 25.7517C11.6478 24.5986 13.6336 25.365 13.6932 26.9946C13.7691 29.0714 14.1415 31.1579 14.8287 33.1729C15.0614 33.8551 14.8952 34.6098 14.3854 35.1196L12.8518 36.6532C9.56746 39.9375 9.46445 45.2852 12.7164 48.6016C16.0005 51.9507 21.3984 51.9707 24.7076 48.6614L32.5826 40.7876C35.8862 37.4839 35.8724 32.1442 32.5826 28.8544C32.1489 28.4215 31.712 28.0852 31.3708 27.8502C31.1294 27.6844 30.93 27.4645 30.7887 27.208C30.6473 26.9515 30.5679 26.6656 30.5567 26.3729C30.5103 25.1346 30.949 23.8586 31.9275 22.88L34.3948 20.4127C35.0418 19.7657 36.0568 19.6862 36.807 20.2098C37.6662 20.8097 38.4709 21.4841 39.2119 22.2251ZM55.7277 5.70844C48.7831 -1.23633 37.4828 -1.23727 30.5371 5.70844L22.6621 13.5834C22.648 13.5975 22.6328 13.6127 22.6199 13.6268C15.7567 20.5282 15.6605 31.7652 22.6621 38.7741C23.4031 39.515 24.2078 40.1893 25.0669 40.7892C25.8171 41.3128 26.8322 41.2332 27.4791 40.5864L29.9464 38.119C30.9249 37.1405 31.3636 35.8644 31.3172 34.6261C31.306 34.3335 31.2266 34.0475 31.0852 33.791C30.9439 33.5345 30.7445 33.3146 30.5031 33.1488C30.1619 32.9139 29.725 32.5775 29.2913 32.1446C26.0015 28.8548 25.9877 23.5151 29.2913 20.2114L37.1663 12.3376C40.4755 9.02836 45.8733 9.04828 49.1575 12.3974C52.4094 15.7138 52.3066 21.0615 49.0221 24.3458L47.4885 25.8795C46.9787 26.3892 46.8125 27.1439 47.0452 27.8262C47.7324 29.8411 48.1048 31.9276 48.1807 34.0044C48.2404 35.634 50.2261 36.4004 51.3792 35.2473L55.7276 30.8989C62.6734 23.9545 62.6734 12.653 55.7277 5.70844Z" fill="#54BAF3"/>
</g>
<defs>
<clipPath id="clip0">
<rect width="60" height="60" fill="white" transform="translate(0.9375 0.5)"/>
</clipPath>
</defs>
</svg>
