<svg width="99" height="25" viewBox="0 0 99 25" fill="none" xmlns="http://www.w3.org/2000/svg">
<path d="M1.88838 24.7273C1.53638 24.7273 1.24038 24.6073 1.00038 24.3673C0.776376 24.1433 0.664376 23.8553 0.664376 23.5033V12.5593C0.680376 11.2953 0.976376 10.1593 1.55238 9.15133C2.12838 8.14333 2.91238 7.35133 3.90438 6.77533C4.89638 6.18333 6.01638 5.88733 7.26438 5.88733C8.52838 5.88733 9.65638 6.18333 10.6484 6.77533C11.6404 7.35133 12.4244 8.14333 13.0004 9.15133C13.5924 10.1593 13.8884 11.2953 13.8884 12.5593C13.8884 13.8233 13.6164 14.9593 13.0724 15.9673C12.5444 16.9593 11.8164 17.7513 10.8884 18.3433C9.96038 18.9193 8.91238 19.2073 7.74438 19.2073C6.80038 19.2073 5.92838 19.0153 5.12838 18.6313C4.34438 18.2313 3.67238 17.6953 3.11238 17.0233V23.5033C3.11238 23.8553 3.00038 24.1433 2.77638 24.3673C2.55238 24.6073 2.25638 24.7273 1.88838 24.7273ZM7.26438 17.0473C8.08038 17.0473 8.80838 16.8553 9.44838 16.4713C10.0884 16.0713 10.5924 15.5353 10.9604 14.8633C11.3444 14.1753 11.5364 13.4073 11.5364 12.5593C11.5364 11.6953 11.3444 10.9273 10.9604 10.2553C10.5924 9.56733 10.0884 9.03133 9.44838 8.64733C8.80838 8.24733 8.08038 8.04733 7.26438 8.04733C6.46438 8.04733 5.73638 8.24733 5.08038 8.64733C4.44038 9.03133 3.93638 9.56733 3.56838 10.2553C3.20038 10.9273 3.01638 11.6953 3.01638 12.5593C3.01638 13.4073 3.20038 14.1753 3.56838 14.8633C3.93638 15.5353 4.44038 16.0713 5.08038 16.4713C5.73638 16.8553 6.46438 17.0473 7.26438 17.0473ZM23.7074 19.2073C22.3794 19.2073 21.1954 18.9273 20.1554 18.3673C19.1314 17.7913 18.3234 17.0073 17.7314 16.0153C17.1554 15.0073 16.8674 13.8553 16.8674 12.5593C16.8674 11.2473 17.1394 10.0953 17.6834 9.10333C18.2434 8.09533 19.0114 7.31133 19.9874 6.75133C20.9634 6.17533 22.0834 5.88733 23.3474 5.88733C24.5954 5.88733 25.6674 6.16733 26.5634 6.72733C27.4594 7.27133 28.1394 8.03133 28.6034 9.00733C29.0834 9.96733 29.3234 11.0793 29.3234 12.3433C29.3234 12.6473 29.2194 12.9033 29.0114 13.1113C28.8034 13.3033 28.5394 13.3993 28.2194 13.3993H19.0994C19.2754 14.5033 19.7794 15.4073 20.6114 16.1113C21.4594 16.7993 22.4914 17.1433 23.7074 17.1433C24.2034 17.1433 24.7074 17.0553 25.2194 16.8793C25.7474 16.6873 26.1714 16.4713 26.4914 16.2313C26.7314 16.0553 26.9874 15.9673 27.2594 15.9673C27.5474 15.9513 27.7954 16.0313 28.0034 16.2073C28.2754 16.4473 28.4194 16.7113 28.4354 16.9993C28.4514 17.2873 28.3234 17.5353 28.0514 17.7433C27.5074 18.1753 26.8274 18.5273 26.0114 18.7993C25.2114 19.0713 24.4434 19.2073 23.7074 19.2073ZM23.3474 7.95133C22.1634 7.95133 21.2114 8.27933 20.4914 8.93533C19.7714 9.59133 19.3154 10.4393 19.1234 11.4793H27.1154C26.9714 10.4553 26.5794 9.61533 25.9394 8.95933C25.2994 8.28733 24.4354 7.95133 23.3474 7.95133ZM37.2216 19.1113C36.4216 19.1113 35.7016 18.9113 35.0616 18.5113C34.4216 18.0953 33.9176 17.5353 33.5496 16.8313C33.1816 16.1273 32.9976 15.3353 32.9976 14.4553V8.52733H31.8936C31.5576 8.52733 31.2856 8.43133 31.0776 8.23933C30.8696 8.04733 30.7656 7.80733 30.7656 7.51933C30.7656 7.19933 30.8696 6.94333 31.0776 6.75133C31.2856 6.55933 31.5576 6.46333 31.8936 6.46333H32.9976V3.00733C32.9976 2.65533 33.1096 2.36733 33.3336 2.14333C33.5576 1.91933 33.8456 1.80733 34.1976 1.80733C34.5496 1.80733 34.8376 1.91933 35.0616 2.14333C35.2856 2.36733 35.3976 2.65533 35.3976 3.00733V6.46333H37.4376C37.7736 6.46333 38.0456 6.55933 38.2536 6.75133C38.4616 6.94333 38.5656 7.19933 38.5656 7.51933C38.5656 7.80733 38.4616 8.04733 38.2536 8.23933C38.0456 8.43133 37.7736 8.52733 37.4376 8.52733H35.3976V14.4553C35.3976 15.0953 35.5736 15.6313 35.9256 16.0633C36.2776 16.4953 36.7096 16.7113 37.2216 16.7113H38.0376C38.3256 16.7113 38.5656 16.8233 38.7576 17.0473C38.9656 17.2713 39.0696 17.5593 39.0696 17.9113C39.0696 18.2633 38.9336 18.5513 38.6616 18.7753C38.4056 18.9993 38.0696 19.1113 37.6536 19.1113H37.2216Z" fill="black"/>
<path d="M48.2704 19.3513C47.2464 19.3513 46.2704 19.1913 45.3424 18.8713C44.4144 18.5513 43.6064 18.1033 42.9184 17.5273C42.2304 16.9513 41.7264 16.2873 41.4064 15.5353C41.2464 15.1993 41.2464 14.8873 41.4064 14.5993C41.5824 14.3113 41.8704 14.1273 42.2704 14.0473C42.5584 13.9833 42.8384 14.0313 43.1104 14.1913C43.3984 14.3353 43.6144 14.5593 43.7584 14.8633C43.9504 15.2633 44.2624 15.6313 44.6944 15.9673C45.1424 16.3033 45.6784 16.5753 46.3024 16.7833C46.9264 16.9913 47.5824 17.0953 48.2704 17.0953C49.0384 17.0953 49.7424 16.9753 50.3824 16.7353C51.0384 16.4953 51.5664 16.1513 51.9664 15.7033C52.3664 15.2393 52.5664 14.6713 52.5664 13.9993C52.5664 13.1513 52.2304 12.3913 51.5584 11.7193C50.9024 11.0473 49.8144 10.6313 48.2944 10.4713C46.3104 10.2793 44.7504 9.69533 43.6144 8.71933C42.4784 7.74333 41.9104 6.53533 41.9104 5.09533C41.9104 4.03933 42.2064 3.14333 42.7984 2.40733C43.3904 1.67133 44.1904 1.11133 45.1984 0.727327C46.2224 0.343328 47.3584 0.151328 48.6064 0.151328C50.0624 0.151328 51.2544 0.447328 52.1824 1.03933C53.1104 1.63133 53.8784 2.41533 54.4864 3.39133C54.7104 3.74333 54.7984 4.07933 54.7504 4.39933C54.7184 4.70333 54.5664 4.94333 54.2944 5.11933C53.9904 5.31133 53.6624 5.35133 53.3104 5.23933C52.9584 5.12733 52.6944 4.91933 52.5184 4.61533C52.1184 3.92733 51.5984 3.39133 50.9584 3.00733C50.3344 2.62333 49.5264 2.42333 48.5344 2.40733C47.3504 2.39133 46.3584 2.61533 45.5584 3.07933C44.7584 3.52733 44.3584 4.22333 44.3584 5.16733C44.3584 5.64733 44.4784 6.11133 44.7184 6.55933C44.9744 6.99133 45.4304 7.36733 46.0864 7.68733C46.7584 8.00733 47.7184 8.23133 48.9664 8.35933C50.8704 8.55133 52.3504 9.13533 53.4064 10.1113C54.4784 11.0713 55.0144 12.3433 55.0144 13.9273C55.0144 14.8393 54.8224 15.6313 54.4384 16.3033C54.0704 16.9753 53.5664 17.5433 52.9264 18.0073C52.3024 18.4553 51.5824 18.7913 50.7664 19.0153C49.9664 19.2393 49.1344 19.3513 48.2704 19.3513ZM64.0739 19.2073C62.9059 19.2073 61.8579 18.9193 60.9299 18.3433C60.0019 17.7513 59.2659 16.9593 58.7219 15.9673C58.1939 14.9593 57.9299 13.8233 57.9299 12.5593C57.9299 11.2953 58.2179 10.1593 58.7939 9.15133C59.3859 8.14333 60.1779 7.35133 61.1699 6.77533C62.1779 6.18333 63.3059 5.88733 64.5539 5.88733C65.8019 5.88733 66.9219 6.18333 67.9139 6.77533C68.9059 7.35133 69.6899 8.14333 70.2659 9.15133C70.8579 10.1593 71.1539 11.2953 71.1539 12.5593V17.9113C71.1539 18.2633 71.0339 18.5593 70.7939 18.7993C70.5699 19.0233 70.2819 19.1353 69.9299 19.1353C69.5779 19.1353 69.2819 19.0233 69.0419 18.7993C68.8179 18.5593 68.7059 18.2633 68.7059 17.9113V17.0233C68.1459 17.6953 67.4659 18.2313 66.6659 18.6313C65.8819 19.0153 65.0179 19.2073 64.0739 19.2073ZM64.5539 17.0473C65.3699 17.0473 66.0979 16.8553 66.7379 16.4713C67.3779 16.0713 67.8819 15.5353 68.2499 14.8633C68.6179 14.1753 68.8019 13.4073 68.8019 12.5593C68.8019 11.6953 68.6179 10.9273 68.2499 10.2553C67.8819 9.56733 67.3779 9.03133 66.7379 8.64733C66.0979 8.24733 65.3699 8.04733 64.5539 8.04733C63.7539 8.04733 63.0259 8.24733 62.3699 8.64733C61.7299 9.03133 61.2179 9.56733 60.8339 10.2553C60.4659 10.9273 60.2819 11.6953 60.2819 12.5593C60.2819 13.4073 60.4659 14.1753 60.8339 14.8633C61.2179 15.5353 61.7299 16.0713 62.3699 16.4713C63.0259 16.8553 63.7539 17.0473 64.5539 17.0473ZM78.5106 19.0873C78.0146 19.0873 77.6306 18.8233 77.3586 18.2953L72.2706 7.56733C72.1426 7.29533 72.1266 7.03133 72.2226 6.77533C72.3346 6.50333 72.5426 6.29533 72.8466 6.15133C73.1186 6.00733 73.3906 5.98333 73.6626 6.07933C73.9506 6.17533 74.1666 6.35933 74.3106 6.63133L78.4866 15.6313L82.6146 6.63133C82.7586 6.35933 82.9746 6.17533 83.2626 6.07933C83.5666 5.98333 83.8706 6.00733 84.1746 6.15133C84.4626 6.27933 84.6546 6.47933 84.7506 6.75133C84.8466 7.02333 84.8306 7.29533 84.7026 7.56733L79.6146 18.2953C79.3746 18.8233 79.0066 19.0873 78.5106 19.0873ZM92.9183 19.2073C91.5903 19.2073 90.4063 18.9273 89.3663 18.3673C88.3423 17.7913 87.5343 17.0073 86.9423 16.0153C86.3663 15.0073 86.0783 13.8553 86.0783 12.5593C86.0783 11.2473 86.3503 10.0953 86.8943 9.10333C87.4543 8.09533 88.2223 7.31133 89.1983 6.75133C90.1743 6.17533 91.2943 5.88733 92.5583 5.88733C93.8063 5.88733 94.8783 6.16733 95.7743 6.72733C96.6703 7.27133 97.3503 8.03133 97.8143 9.00733C98.2943 9.96733 98.5343 11.0793 98.5343 12.3433C98.5343 12.6473 98.4303 12.9033 98.2223 13.1113C98.0143 13.3033 97.7503 13.3993 97.4303 13.3993H88.3103C88.4863 14.5033 88.9903 15.4073 89.8223 16.1113C90.6703 16.7993 91.7023 17.1433 92.9183 17.1433C93.4143 17.1433 93.9183 17.0553 94.4303 16.8793C94.9583 16.6873 95.3823 16.4713 95.7023 16.2313C95.9423 16.0553 96.1983 15.9673 96.4703 15.9673C96.7583 15.9513 97.0063 16.0313 97.2143 16.2073C97.4863 16.4473 97.6303 16.7113 97.6463 16.9993C97.6623 17.2873 97.5343 17.5353 97.2623 17.7433C96.7183 18.1753 96.0383 18.5273 95.2223 18.7993C94.4223 19.0713 93.6543 19.2073 92.9183 19.2073ZM92.5583 7.95133C91.3743 7.95133 90.4223 8.27933 89.7023 8.93533C88.9823 9.59133 88.5263 10.4393 88.3343 11.4793H96.3263C96.1823 10.4553 95.7903 9.61533 95.1503 8.95933C94.5103 8.28733 93.6463 7.95133 92.5583 7.95133Z" fill="#54BAF3"/>
</svg>
