<svg width="104" height="104" viewBox="0 0 104 104" fill="none" xmlns="http://www.w3.org/2000/svg">
<g clip-path="url(#clip0)">
<path d="M52.3873 0.5C42.209 0.5 32.2594 3.51833 23.7966 9.17327C15.3338 14.8282 8.73806 22.8658 4.84347 32.2694C0.94888 41.6731 -0.0696155 52.0205 1.91679 62.003C3.9032 71.9856 8.80528 81.1548 16.0031 88.3512C23.2009 95.5477 32.3711 100.448 42.354 102.432C52.337 104.417 62.6842 103.396 72.0871 99.5C81.49 95.6036 89.5263 89.0062 95.1796 80.5424C100.833 72.0785 103.849 62.1283 103.847 51.95C103.845 38.3037 98.4218 25.2172 88.7715 15.5687C79.1211 5.92029 66.0336 0.5 52.3873 0.5V0.5ZM56.1473 30.62C57.7473 24.78 62.4073 20.93 66.5673 22.03C70.7273 23.13 72.8073 28.74 71.2073 34.58C69.6073 40.42 64.9373 44.26 60.7973 43.16C56.6573 42.06 54.5573 36.5 56.1473 30.62ZM38.2173 22.03C42.3773 20.94 47.0373 24.78 48.6273 30.62C50.2173 36.46 48.1373 42.07 43.9873 43.16C39.8373 44.25 35.1573 40.42 33.5673 34.58C31.9773 28.74 34.0573 23.12 38.2173 22.03ZM18.4173 49.35C17.0273 44.69 19.0573 40.15 22.9773 39.22C26.8973 38.29 31.1973 41.3 32.5973 45.96C33.9973 50.62 31.9373 55.15 28.0373 56.08C24.1373 57.01 19.8173 54 18.4173 49.35ZM68.5573 82.06C62.0473 82.06 57.6973 78.69 52.3873 78.69C47.0773 78.69 42.7873 82.06 36.2273 82.06C30.2273 82.06 26.5873 79.26 26.5873 74.57C26.5873 64.15 41.7173 47.65 52.3873 47.65C63.0573 47.65 78.1973 64.15 78.1973 74.57C78.1973 79.26 74.5973 82.06 68.5573 82.06ZM86.3573 49.35C84.9573 54 80.6573 57.02 76.7373 56.09C72.8173 55.16 70.7373 50.62 72.1873 45.96C73.6373 41.3 77.8873 38.29 81.8073 39.22C85.7273 40.15 87.7573 44.69 86.3573 49.35Z" fill="black"/>
</g>
<defs>
<clipPath id="clip0">
<rect width="102.91" height="102.91" fill="white" transform="translate(0.9375 0.5)"/>
</clipPath>
</defs>
</svg>
