<svg width="212" height="66" viewBox="0 0 212 66" fill="none" xmlns="http://www.w3.org/2000/svg">
<path d="M33.4375 0.5C15.4882 0.5 0.9375 15.0507 0.9375 33C0.9375 50.9493 15.4882 65.5 33.4375 65.5C51.3868 65.5 65.9375 50.9493 65.9375 33C65.9375 15.0507 51.3868 0.5 33.4375 0.5ZM33.4375 6.79032C47.9225 6.79032 59.6472 18.5127 59.6472 33C59.6472 47.485 47.9248 59.2097 33.4375 59.2097C18.9525 59.2097 7.22782 47.4873 7.22782 33C7.22782 18.515 18.9502 6.79032 33.4375 6.79032ZM51.811 23.8616L48.8577 20.8844C48.2461 20.2679 47.2504 20.2638 46.6338 20.8755L28.1099 39.2506L20.2742 31.3514C19.6626 30.7348 18.6669 30.7308 18.0503 31.3424L15.073 34.2957C14.4565 34.9073 14.4524 35.903 15.0641 36.5197L26.9608 48.5127C27.5724 49.1293 28.5681 49.1334 29.1847 48.5216L51.8022 26.0856C52.4187 25.4739 52.4226 24.4782 51.811 23.8616Z" fill="#6CC775"/>
<path d="M78.0625 27.5H82.8011V21.7386H84.4375L87.5057 27.5H92.6534L89.108 20.9886C90.9659 20.0938 92.0739 18.3977 92.0739 15.9773C92.0739 12.2614 89.4744 10.0455 85.5966 10.0455H78.0625V27.5ZM82.8011 18.0568V13.8295H84.4716C86.1335 13.8295 87.1307 14.4773 87.1307 15.9773C87.1307 17.4688 86.1335 18.0568 84.4716 18.0568H82.8011ZM94.0938 27.5H106.639V23.6818H98.8324V20.6818H106.026V16.8636H98.8324V13.8636H106.673V10.0455H94.0938V27.5ZM109.023 27.5H113.762V20.6818H120.035V27.5H124.773V10.0455H120.035V16.8636H113.762V10.0455H109.023V27.5ZM131.558 27.5L132.563 24.1591H138.325L139.33 27.5H144.444L138.683 10.0455H132.205L126.444 27.5H131.558ZM133.637 20.6136L135.376 14.8523H135.512L137.251 20.6136H133.637ZM146.125 27.5H154.341C158.134 27.5 160.477 25.429 160.477 22.5568C160.477 20.0938 158.662 18.483 156.42 18.3977V18.2273C158.44 17.8267 159.795 16.3352 159.795 14.4091C159.795 11.75 157.682 10.0455 153.693 10.0455H146.125V27.5ZM150.864 23.7159V20.0341H153.148C154.588 20.0341 155.466 20.7159 155.466 21.9432C155.466 23.1108 154.673 23.7159 153.08 23.7159H150.864ZM150.864 17.1023V13.7614H152.875C154.051 13.7614 154.92 14.358 154.92 15.4318C154.92 16.5057 154.051 17.1023 152.807 17.1023H150.864ZM175.562 9.22727H171.574L165.949 30.125H169.938L175.562 9.22727ZM78.0625 56.5H82.8011V50.7386H84.4375L87.5057 56.5H92.6534L89.108 49.9886C90.9659 49.0938 92.0739 47.3977 92.0739 44.9773C92.0739 41.2614 89.4744 39.0455 85.5966 39.0455H78.0625V56.5ZM82.8011 47.0568V42.8295H84.4716C86.1335 42.8295 87.1307 43.4773 87.1307 44.9773C87.1307 46.4688 86.1335 47.0568 84.4716 47.0568H82.8011ZM94.0938 56.5H106.639V52.6818H98.8324V49.6818H106.026V45.8636H98.8324V42.8636H106.673V39.0455H94.0938V56.5ZM125.319 45.5909C124.944 41.2614 121.773 38.8068 117.376 38.8068C112.671 38.8068 108.955 41.9432 108.955 47.7727C108.955 53.5767 112.569 56.7386 117.376 56.7386C122.489 56.7386 125.08 53.1932 125.319 50.2273L120.512 50.1932C120.273 51.6847 119.217 52.6136 117.478 52.6136C115.168 52.6136 113.83 50.9773 113.83 47.7727C113.83 44.7386 115.126 42.9318 117.512 42.9318C119.336 42.9318 120.376 44.0057 120.512 45.5909H125.319ZM144.378 47.7727C144.378 41.9432 140.628 38.8068 135.889 38.8068C131.116 38.8068 127.401 41.9432 127.401 47.7727C127.401 53.5682 131.116 56.7386 135.889 56.7386C140.628 56.7386 144.378 53.6023 144.378 47.7727ZM139.503 47.7727C139.503 50.9091 138.241 52.6136 135.889 52.6136C133.537 52.6136 132.276 50.9091 132.276 47.7727C132.276 44.6364 133.537 42.9318 135.889 42.9318C138.241 42.9318 139.503 44.6364 139.503 47.7727ZM150.241 39.0455H144.889L150.651 56.5H157.128L162.889 39.0455H157.537L153.957 51.3523H153.821L150.241 39.0455ZM164.57 56.5H177.116V52.6818H169.309V49.6818H176.502V45.8636H169.309V42.8636H177.15V39.0455H164.57V56.5ZM179.5 56.5H184.239V50.7386H185.875L188.943 56.5H194.091L190.545 49.9886C192.403 49.0938 193.511 47.3977 193.511 44.9773C193.511 41.2614 190.912 39.0455 187.034 39.0455H179.5V56.5ZM184.239 47.0568V42.8295H185.909C187.571 42.8295 188.568 43.4773 188.568 44.9773C188.568 46.4688 187.571 47.0568 185.909 47.0568H184.239ZM193.995 39.0455L200.404 51.0114V56.5H205.109V51.0114L211.518 39.0455H206.234L202.825 46.1364H202.688L199.279 39.0455H193.995Z" fill="black"/>
</svg>
