<svg width="84" height="186" viewBox="0 0 84 186" fill="none" xmlns="http://www.w3.org/2000/svg">
<g clip-path="url(#clip0)">
<path d="M69.1467 29.3C68.8936 28.0385 68.6026 26.5247 68.299 24.9226C68.2733 22.3141 67.8026 19.7289 66.9072 17.2778C64.9714 12.2682 61.5389 7.9723 57.0741 4.97146C52.6093 1.97062 47.3277 0.409662 41.9439 0.499788C29.6964 0.499788 19.4099 8.33375 16.4492 18.9556C15.869 21.0079 15.5794 23.1309 15.5889 25.2632C15.5904 26.3138 15.6622 27.3632 15.804 28.4043C15.621 29.1576 15.2561 29.8548 14.7412 30.4353C12.3246 32.7944 9.54102 31.6716 9.54102 34.5605C9.54102 37.4493 13.0457 38.1936 13.0457 38.1936L17.8284 38.1053C17.9742 44.5181 20.6316 50.6192 25.232 55.1032C29.8324 59.5872 36.0103 62.0978 42.4437 62.0978C48.8771 62.0978 55.055 59.5872 59.6554 55.1032C64.2558 50.6192 66.9132 44.5181 67.059 38.1053C67.059 37.7899 67.059 37.4872 67.059 37.1844L72.4363 37.0835C72.4363 37.0835 75.106 37.3232 75.3843 33.7026C75.6627 30.0821 69.9944 33.362 69.1467 29.3ZM55.229 26.2219H46.7012V34.7497H38.1482V26.2219H29.5951V17.6815H38.1482V9.15373H46.7012V17.6815H55.2543L55.229 26.2219Z" fill="black"/>
<path d="M26.2424 71.2451H58.6326C65.3439 71.2451 71.7803 73.9033 76.5259 78.6349C81.2715 83.3664 83.9375 89.7838 83.9375 96.4753V176.266C83.9375 177.477 83.6983 178.676 83.2335 179.795C82.7687 180.913 82.0874 181.93 81.2285 182.786C80.3697 183.643 79.3501 184.322 78.228 184.785C77.1059 185.249 75.9032 185.487 74.6886 185.487H10.1611C7.71255 185.481 5.36654 184.506 3.6375 182.777C1.90845 181.049 0.937491 178.707 0.9375 176.266L0.9375 96.4753C0.9375 89.7838 3.60354 83.3664 8.34913 78.6349C13.0947 73.9033 19.5311 71.2451 26.2424 71.2451Z" fill="black"/>
</g>
<defs>
<clipPath id="clip0">
<rect width="83" height="185" fill="white" transform="translate(0.9375 0.5)"/>
</clipPath>
</defs>
</svg>
