<svg width="180" height="66" viewBox="0 0 180 66" fill="none" xmlns="http://www.w3.org/2000/svg">
<path d="M33.4375 0.5C15.4883 0.5 0.9375 15.0507 0.9375 33C0.9375 50.9493 15.4883 65.5 33.4375 65.5C51.3867 65.5 65.9375 50.9492 65.9375 33C65.9375 15.0508 51.3868 0.5 33.4375 0.5ZM50.4879 15.9496C59.0648 24.5264 59.6613 37.6356 53.1976 46.8294L19.608 13.24C28.8081 6.77198 41.9158 7.37755 50.4879 15.9496ZM16.3871 50.0504C7.8102 41.4736 7.21367 28.3644 13.6774 19.1706L47.267 52.76C38.067 59.228 24.9592 58.6226 16.3871 50.0504Z" fill="#E04545"/>
<path d="M87.6932 15.2784H91.733C91.6989 12.0142 89.0994 9.80682 85.0426 9.80682C81.054 9.80682 78.1818 11.9801 78.2074 15.2273C78.1989 17.8778 80.0568 19.3693 83.0739 20.0597L84.8977 20.4858C86.8153 20.929 87.6761 21.4489 87.6932 22.429C87.6761 23.4943 86.679 24.2358 84.983 24.2358C83.1165 24.2358 81.8892 23.3665 81.7955 21.6875H77.7557C77.8068 25.7699 80.6449 27.7216 85.0341 27.7216C89.3807 27.7216 91.9545 25.7528 91.9716 22.4375C91.9545 19.6506 90.071 17.946 86.6278 17.1875L85.1278 16.8466C83.5426 16.5057 82.5369 15.9773 82.571 14.9375C82.5795 13.983 83.3977 13.2926 85.0341 13.2926C86.679 13.2926 87.5824 14.0341 87.6932 15.2784ZM94.1023 27.5H98.321V22.0795H101.185C105.182 22.0795 107.679 19.7102 107.679 16.0881C107.679 12.5 105.233 10.0455 101.312 10.0455H94.1023V27.5ZM98.321 18.7557V13.446H100.401C102.293 13.446 103.307 14.4688 103.307 16.0881C103.307 17.6989 102.293 18.7557 100.401 18.7557H98.321ZM109.759 27.5H121.929V24.0739H113.977V20.4858H121.307V17.0511H113.977V13.4716H121.929V10.0455H109.759V27.5ZM140.415 16.3693C139.989 12.1932 136.878 9.80682 132.659 9.80682C128.006 9.80682 124.384 13.0028 124.384 18.7727C124.384 24.517 127.92 27.7386 132.659 27.7386C137.449 27.7386 140.099 24.483 140.415 21.3892L136.153 21.3636C135.855 23.0426 134.594 24.0398 132.744 24.0398C130.256 24.0398 128.688 22.2415 128.688 18.7727C128.688 15.4403 130.222 13.5057 132.77 13.5057C134.688 13.5057 135.94 14.6222 136.153 16.3693H140.415ZM147.048 10.0455H142.829V27.5H147.048V10.0455ZM149.696 27.5H161.866V24.0739H153.915V20.4858H161.244V17.0511H153.915V13.4716H161.866V10.0455H149.696V27.5ZM173.943 15.2784H177.983C177.949 12.0142 175.349 9.80682 171.293 9.80682C167.304 9.80682 164.432 11.9801 164.457 15.2273C164.449 17.8778 166.307 19.3693 169.324 20.0597L171.148 20.4858C173.065 20.929 173.926 21.4489 173.943 22.429C173.926 23.4943 172.929 24.2358 171.233 24.2358C169.366 24.2358 168.139 23.3665 168.045 21.6875H164.006C164.057 25.7699 166.895 27.7216 171.284 27.7216C175.631 27.7216 178.205 25.7528 178.222 22.4375C178.205 19.6506 176.321 17.946 172.878 17.1875L171.378 16.8466C169.793 16.5057 168.787 15.9773 168.821 14.9375C168.83 13.983 169.648 13.2926 171.284 13.2926C172.929 13.2926 173.832 14.0341 173.943 15.2784ZM78.2585 56.5H89.7386V53.0739H82.4773V39.0455H78.2585V56.5ZM96.1413 39.0455H91.9226V56.5H96.1413V39.0455ZM98.7898 39.0455V56.5H102.898V45.7188H103.043L107.236 56.3892H109.861L114.054 45.7784H114.199V56.5H118.307V39.0455H113.082L108.651 49.8523H108.446L104.014 39.0455H98.7898ZM125.157 39.0455H120.938V56.5H125.157V39.0455ZM127.234 42.4716H132.536V56.5H136.695V42.4716H141.987V39.0455H127.234V42.4716Z" fill="black"/>
</svg>
